<?xml version="1.0" encoding="UTF-8" standalone="no"?>
<!DOCTYPE svg PUBLIC "-//W3C//DTD SVG 1.1//EN"
 "http://www.w3.org/Graphics/SVG/1.1/DTD/svg11.dtd">
<!-- Generated by graphviz version 2.30.1 (20140110.0959)
 -->
<!-- Title: M Pages: 1 -->
<svg width="803pt" height="667pt"
 viewBox="0.00 0.00 803.00 667.00" xmlns="http://www.w3.org/2000/svg" xmlns:xlink="http://www.w3.org/1999/xlink">
<g id="graph0" class="graph" transform="scale(1 1) rotate(0) translate(4 663)">
<title>M</title>
<polygon fill="white" stroke="white" points="-4,5 -4,-663 800,-663 800,5 -4,5"/>
<text text-anchor="middle" x="397.5" y="-7.8" font-family="Times,serif" font-size="14.00">intrusion messages send</text>
<!-- 41 -->
<g id="node1" class="node"><title>41</title>
<ellipse fill="none" stroke="black" cx="397.5" cy="-341" rx="27" ry="18"/>
<text text-anchor="middle" x="397.5" y="-337.3" font-family="Times,serif" font-size="14.00">41</text>
</g>
<!-- 44 -->
<g id="node2" class="node"><title>44</title>
<ellipse fill="none" stroke="black" cx="397.5" cy="-441" rx="27" ry="18"/>
<text text-anchor="middle" x="397.5" y="-437.3" font-family="Times,serif" font-size="14.00">44</text>
</g>
<!-- 44&#45;&gt;41 -->
<g id="edge23" class="edge"><title>44&#45;&gt;41</title>
<path fill="none" stroke="black" d="M397.5,-422.658C397.5,-407.716 397.5,-386.366 397.5,-369.245"/>
<polygon fill="black" stroke="black" points="401,-369.225 397.5,-359.225 394,-369.225 401,-369.225"/>
<text text-anchor="middle" x="394" y="-399.752" font-family="Times,serif" font-size="14.00">0</text>
</g>
<!-- 25 -->
<g id="node3" class="node"><title>25</title>
<ellipse fill="none" stroke="black" cx="397.5" cy="-541" rx="27" ry="18"/>
<text text-anchor="middle" x="397.5" y="-537.3" font-family="Times,serif" font-size="14.00">25</text>
</g>
<!-- 25&#45;&gt;44 -->
<g id="edge11" class="edge"><title>25&#45;&gt;44</title>
<path fill="none" stroke="black" d="M397.5,-522.658C397.5,-507.716 397.5,-486.366 397.5,-469.245"/>
<polygon fill="black" stroke="black" points="401,-469.225 397.5,-459.225 394,-469.225 401,-469.225"/>
<text text-anchor="middle" x="394" y="-499.752" font-family="Times,serif" font-size="14.00">2</text>
</g>
<!-- 10 -->
<g id="node4" class="node"><title>10</title>
<ellipse fill="none" stroke="black" cx="397.5" cy="-641" rx="27" ry="18"/>
<text text-anchor="middle" x="397.5" y="-637.3" font-family="Times,serif" font-size="14.00">10</text>
</g>
<!-- 10&#45;&gt;25 -->
<g id="edge5" class="edge"><title>10&#45;&gt;25</title>
<path fill="none" stroke="black" d="M397.5,-622.658C397.5,-607.716 397.5,-586.366 397.5,-569.245"/>
<polygon fill="black" stroke="black" points="401,-569.225 397.5,-559.225 394,-569.225 401,-569.225"/>
<text text-anchor="middle" x="394" y="-599.752" font-family="Times,serif" font-size="14.00">6</text>
</g>
<!-- 33 -->
<g id="node5" class="node"><title>33</title>
<ellipse fill="none" stroke="black" cx="482.592" cy="-411" rx="27" ry="18"/>
<text text-anchor="middle" x="482.592" y="-407.3" font-family="Times,serif" font-size="14.00">33</text>
</g>
<!-- 33&#45;&gt;41 -->
<g id="edge16" class="edge"><title>33&#45;&gt;41</title>
<path fill="none" stroke="black" d="M465.372,-396.834C453.031,-386.682 436.22,-372.853 422.417,-361.498"/>
<polygon fill="black" stroke="black" points="424.64,-358.795 414.694,-355.144 420.193,-364.2 424.64,-358.795"/>
<text text-anchor="middle" x="440.395" y="-382.966" font-family="Times,serif" font-size="14.00">0</text>
</g>
<!-- 46 -->
<g id="node6" class="node"><title>46</title>
<ellipse fill="none" stroke="black" cx="579.839" cy="-491" rx="27" ry="18"/>
<text text-anchor="middle" x="579.839" y="-487.3" font-family="Times,serif" font-size="14.00">46</text>
</g>
<!-- 46&#45;&gt;33 -->
<g id="edge24" class="edge"><title>46&#45;&gt;33</title>
<path fill="none" stroke="black" d="M562.454,-476.698C547.242,-464.184 524.956,-445.851 507.79,-431.729"/>
<polygon fill="black" stroke="black" points="509.773,-428.829 499.827,-425.179 505.326,-434.235 509.773,-428.829"/>
<text text-anchor="middle" x="531.622" y="-458.013" font-family="Times,serif" font-size="14.00">0</text>
</g>
<!-- 47 -->
<g id="node7" class="node"><title>47</title>
<ellipse fill="none" stroke="black" cx="579.839" cy="-591" rx="27" ry="18"/>
<text text-anchor="middle" x="579.839" y="-587.3" font-family="Times,serif" font-size="14.00">47</text>
</g>
<!-- 47&#45;&gt;46 -->
<g id="edge25" class="edge"><title>47&#45;&gt;46</title>
<path fill="none" stroke="black" d="M579.839,-572.658C579.839,-557.716 579.839,-536.366 579.839,-519.245"/>
<polygon fill="black" stroke="black" points="583.34,-519.225 579.839,-509.225 576.34,-519.225 583.34,-519.225"/>
<text text-anchor="middle" x="576.339" y="-549.752" font-family="Times,serif" font-size="14.00">2</text>
</g>
<!-- 48 -->
<g id="node8" class="node"><title>48</title>
<ellipse fill="none" stroke="black" cx="640.619" cy="-411" rx="27" ry="18"/>
<text text-anchor="middle" x="640.619" y="-407.3" font-family="Times,serif" font-size="14.00">48</text>
</g>
<!-- 48&#45;&gt;33 -->
<g id="edge26" class="edge"><title>48&#45;&gt;33</title>
<path fill="none" stroke="black" d="M613.453,-411C587.596,-411 548.474,-411 519.74,-411"/>
<polygon fill="black" stroke="black" points="519.667,-407.5 509.667,-411 519.667,-414.5 519.667,-407.5"/>
<text text-anchor="middle" x="563.097" y="-414.8" font-family="Times,serif" font-size="14.00">2</text>
</g>
<!-- 4 -->
<g id="node9" class="node"><title>4</title>
<ellipse fill="none" stroke="black" cx="482.592" cy="-271" rx="27" ry="18"/>
<text text-anchor="middle" x="482.592" y="-267.3" font-family="Times,serif" font-size="14.00">4</text>
</g>
<!-- 4&#45;&gt;41 -->
<g id="edge1" class="edge"><title>4&#45;&gt;41</title>
<path fill="none" stroke="black" d="M465.372,-285.166C453.031,-295.318 436.22,-309.147 422.417,-320.502"/>
<polygon fill="black" stroke="black" points="420.193,-317.8 414.694,-326.856 424.64,-323.205 420.193,-317.8"/>
<text text-anchor="middle" x="440.395" y="-306.634" font-family="Times,serif" font-size="14.00">3</text>
</g>
<!-- 19 -->
<g id="node10" class="node"><title>19</title>
<ellipse fill="none" stroke="black" cx="640.619" cy="-341" rx="27" ry="18"/>
<text text-anchor="middle" x="640.619" y="-337.3" font-family="Times,serif" font-size="14.00">19</text>
</g>
<!-- 19&#45;&gt;4 -->
<g id="edge9" class="edge"><title>19&#45;&gt;4</title>
<path fill="none" stroke="black" d="M617.978,-330.971C590.87,-318.963 545.293,-298.774 514.593,-285.176"/>
<polygon fill="black" stroke="black" points="515.752,-281.861 505.191,-281.011 512.917,-288.261 515.752,-281.861"/>
<text text-anchor="middle" x="562.786" y="-311.873" font-family="Times,serif" font-size="14.00">2</text>
</g>
<!-- 6 -->
<g id="node11" class="node"><title>6</title>
<ellipse fill="none" stroke="black" cx="762.179" cy="-341" rx="27" ry="18"/>
<text text-anchor="middle" x="762.179" y="-337.3" font-family="Times,serif" font-size="14.00">6</text>
</g>
<!-- 6&#45;&gt;19 -->
<g id="edge3" class="edge"><title>6&#45;&gt;19</title>
<path fill="none" stroke="black" d="M734.899,-341C718.085,-341 696.298,-341 677.903,-341"/>
<polygon fill="black" stroke="black" points="677.809,-337.5 667.809,-341 677.809,-344.5 677.809,-337.5"/>
<text text-anchor="middle" x="702.901" y="-344.8" font-family="Times,serif" font-size="14.00">4</text>
</g>
<!-- 28 -->
<g id="node12" class="node"><title>28</title>
<ellipse fill="none" stroke="black" cx="701.399" cy="-141" rx="27" ry="18"/>
<text text-anchor="middle" x="701.399" y="-137.3" font-family="Times,serif" font-size="14.00">28</text>
</g>
<!-- 28&#45;&gt;4 -->
<g id="edge12" class="edge"><title>28&#45;&gt;4</title>
<path fill="none" stroke="black" d="M681.206,-152.997C642.308,-176.108 556.855,-226.878 511.769,-253.665"/>
<polygon fill="black" stroke="black" points="509.863,-250.726 503.054,-258.843 513.439,-256.744 509.863,-250.726"/>
<text text-anchor="middle" x="592.988" y="-207.131" font-family="Times,serif" font-size="14.00">3</text>
</g>
<!-- 37 -->
<g id="node13" class="node"><title>37</title>
<ellipse fill="none" stroke="black" cx="397.5" cy="-241" rx="27" ry="18"/>
<text text-anchor="middle" x="397.5" y="-237.3" font-family="Times,serif" font-size="14.00">37</text>
</g>
<!-- 37&#45;&gt;41 -->
<g id="edge19" class="edge"><title>37&#45;&gt;41</title>
<path fill="none" stroke="black" d="M397.5,-259.342C397.5,-274.284 397.5,-295.634 397.5,-312.755"/>
<polygon fill="black" stroke="black" points="394,-312.775 397.5,-322.775 401,-312.775 394,-312.775"/>
<text text-anchor="middle" x="394" y="-289.848" font-family="Times,serif" font-size="14.00">2</text>
</g>
<!-- 17 -->
<g id="node14" class="node"><title>17</title>
<ellipse fill="none" stroke="black" cx="482.592" cy="-141" rx="27" ry="18"/>
<text text-anchor="middle" x="482.592" y="-137.3" font-family="Times,serif" font-size="14.00">17</text>
</g>
<!-- 17&#45;&gt;37 -->
<g id="edge8" class="edge"><title>17&#45;&gt;37</title>
<path fill="none" stroke="black" d="M468.92,-157.067C455.006,-173.418 433.291,-198.938 417.456,-217.547"/>
<polygon fill="black" stroke="black" points="414.672,-215.419 410.857,-225.303 420.003,-219.955 414.672,-215.419"/>
<text text-anchor="middle" x="439.688" y="-191.107" font-family="Times,serif" font-size="14.00">1</text>
</g>
<!-- 7 -->
<g id="node15" class="node"><title>7</title>
<ellipse fill="none" stroke="black" cx="579.839" cy="-91" rx="27" ry="18"/>
<text text-anchor="middle" x="579.839" y="-87.3" font-family="Times,serif" font-size="14.00">7</text>
</g>
<!-- 7&#45;&gt;17 -->
<g id="edge4" class="edge"><title>7&#45;&gt;17</title>
<path fill="none" stroke="black" d="M558.257,-102.097C545.037,-108.894 527.907,-117.701 513.29,-125.216"/>
<polygon fill="black" stroke="black" points="511.407,-122.249 504.114,-129.934 514.608,-128.474 511.407,-122.249"/>
<text text-anchor="middle" x="532.274" y="-117.457" font-family="Times,serif" font-size="14.00">6</text>
</g>
<!-- 15 -->
<g id="node16" class="node"><title>15</title>
<ellipse fill="none" stroke="black" cx="458.28" cy="-41" rx="27" ry="18"/>
<text text-anchor="middle" x="458.28" y="-37.3" font-family="Times,serif" font-size="14.00">15</text>
</g>
<!-- 15&#45;&gt;17 -->
<g id="edge7" class="edge"><title>15&#45;&gt;17</title>
<path fill="none" stroke="black" d="M462.626,-58.878C466.268,-73.8584 471.532,-95.5101 475.741,-112.821"/>
<polygon fill="black" stroke="black" points="472.438,-114.05 478.201,-122.94 479.239,-112.396 472.438,-114.05"/>
<text text-anchor="middle" x="465.684" y="-89.6494" font-family="Times,serif" font-size="14.00">0</text>
</g>
<!-- 14 -->
<g id="node17" class="node"><title>14</title>
<ellipse fill="none" stroke="black" cx="361.032" cy="-141" rx="27" ry="18"/>
<text text-anchor="middle" x="361.032" y="-137.3" font-family="Times,serif" font-size="14.00">14</text>
</g>
<!-- 14&#45;&gt;37 -->
<g id="edge6" class="edge"><title>14&#45;&gt;37</title>
<path fill="none" stroke="black" d="M367.552,-158.878C373.101,-174.094 381.159,-196.192 387.52,-213.633"/>
<polygon fill="black" stroke="black" points="384.322,-215.081 391.037,-223.277 390.899,-212.683 384.322,-215.081"/>
<text text-anchor="middle" x="374.036" y="-190.056" font-family="Times,serif" font-size="14.00">1</text>
</g>
<!-- 43 -->
<g id="node18" class="node"><title>43</title>
<ellipse fill="none" stroke="black" cx="312.408" cy="-41" rx="27" ry="18"/>
<text text-anchor="middle" x="312.408" y="-37.3" font-family="Times,serif" font-size="14.00">43</text>
</g>
<!-- 43&#45;&gt;14 -->
<g id="edge22" class="edge"><title>43&#45;&gt;14</title>
<path fill="none" stroke="black" d="M320.878,-58.4187C328.408,-73.9051 339.53,-96.7777 348.16,-114.527"/>
<polygon fill="black" stroke="black" points="345.139,-116.318 352.66,-123.781 351.434,-113.257 345.139,-116.318"/>
<text text-anchor="middle" x="331.019" y="-90.2727" font-family="Times,serif" font-size="14.00">0</text>
</g>
<!-- 30 -->
<g id="node19" class="node"><title>30</title>
<ellipse fill="none" stroke="black" cx="154.381" cy="-91" rx="27" ry="18"/>
<text text-anchor="middle" x="154.381" y="-87.3" font-family="Times,serif" font-size="14.00">30</text>
</g>
<!-- 35 -->
<g id="node20" class="node"><title>35</title>
<ellipse fill="none" stroke="black" cx="251.628" cy="-161" rx="27" ry="18"/>
<text text-anchor="middle" x="251.628" y="-157.3" font-family="Times,serif" font-size="14.00">35</text>
</g>
<!-- 22 -->
<g id="node21" class="node"><title>22</title>
<ellipse fill="none" stroke="black" cx="312.408" cy="-271" rx="27" ry="18"/>
<text text-anchor="middle" x="312.408" y="-267.3" font-family="Times,serif" font-size="14.00">22</text>
</g>
<!-- 35&#45;&gt;22 -->
<g id="edge17" class="edge"><title>35&#45;&gt;22</title>
<path fill="none" stroke="black" d="M261.125,-178.188C271.027,-196.108 286.665,-224.409 298.071,-245.052"/>
<polygon fill="black" stroke="black" points="295.078,-246.873 302.978,-253.933 301.205,-243.488 295.078,-246.873"/>
<text text-anchor="middle" x="276.098" y="-215.42" font-family="Times,serif" font-size="14.00">1</text>
</g>
<!-- 22&#45;&gt;41 -->
<g id="edge10" class="edge"><title>22&#45;&gt;41</title>
<path fill="none" stroke="black" d="M329.628,-285.166C341.969,-295.318 358.78,-309.147 372.583,-320.502"/>
<polygon fill="black" stroke="black" points="370.36,-323.205 380.306,-326.856 374.807,-317.8 370.36,-323.205"/>
<text text-anchor="middle" x="347.605" y="-306.634" font-family="Times,serif" font-size="14.00">0</text>
</g>
<!-- 42 -->
<g id="node22" class="node"><title>42</title>
<ellipse fill="none" stroke="black" cx="190.849" cy="-211" rx="27" ry="18"/>
<text text-anchor="middle" x="190.849" y="-207.3" font-family="Times,serif" font-size="14.00">42</text>
</g>
<!-- 42&#45;&gt;22 -->
<g id="edge21" class="edge"><title>42&#45;&gt;22</title>
<path fill="none" stroke="black" d="M212.581,-221.727C231.736,-231.181 259.864,-245.065 281.385,-255.687"/>
<polygon fill="black" stroke="black" points="279.938,-258.876 290.454,-260.164 283.036,-252.599 279.938,-258.876"/>
<text text-anchor="middle" x="243.483" y="-242.507" font-family="Times,serif" font-size="14.00">0</text>
</g>
<!-- 36 -->
<g id="node23" class="node"><title>36</title>
<ellipse fill="none" stroke="black" cx="93.6009" cy="-161" rx="27" ry="18"/>
<text text-anchor="middle" x="93.6009" y="-157.3" font-family="Times,serif" font-size="14.00">36</text>
</g>
<!-- 36&#45;&gt;42 -->
<g id="edge18" class="edge"><title>36&#45;&gt;42</title>
<path fill="none" stroke="black" d="M115.183,-172.097C128.403,-178.894 145.533,-187.701 160.15,-195.216"/>
<polygon fill="black" stroke="black" points="158.833,-198.474 169.327,-199.934 162.034,-192.249 158.833,-198.474"/>
<text text-anchor="middle" x="134.167" y="-187.457" font-family="Times,serif" font-size="14.00">0</text>
</g>
<!-- 40 -->
<g id="node24" class="node"><title>40</title>
<ellipse fill="none" stroke="black" cx="154.381" cy="-341" rx="27" ry="18"/>
<text text-anchor="middle" x="154.381" y="-337.3" font-family="Times,serif" font-size="14.00">40</text>
</g>
<!-- 40&#45;&gt;22 -->
<g id="edge20" class="edge"><title>40&#45;&gt;22</title>
<path fill="none" stroke="black" d="M177.022,-330.971C204.13,-318.963 249.707,-298.774 280.407,-285.176"/>
<polygon fill="black" stroke="black" points="282.083,-288.261 289.809,-281.011 279.248,-281.861 282.083,-288.261"/>
<text text-anchor="middle" x="225.214" y="-311.873" font-family="Times,serif" font-size="14.00">3</text>
</g>
<!-- 5 -->
<g id="node25" class="node"><title>5</title>
<ellipse fill="none" stroke="black" cx="32.8211" cy="-341" rx="27" ry="18"/>
<text text-anchor="middle" x="32.8211" y="-337.3" font-family="Times,serif" font-size="14.00">5</text>
</g>
<!-- 5&#45;&gt;40 -->
<g id="edge2" class="edge"><title>5&#45;&gt;40</title>
<path fill="none" stroke="black" d="M60.1015,-341C76.915,-341 98.7025,-341 117.097,-341"/>
<polygon fill="black" stroke="black" points="117.191,-344.5 127.191,-341 117.191,-337.5 117.191,-344.5"/>
<text text-anchor="middle" x="85.099" y="-344.8" font-family="Times,serif" font-size="14.00">2</text>
</g>
<!-- 31 -->
<g id="node26" class="node"><title>31</title>
<ellipse fill="none" stroke="black" cx="312.408" cy="-411" rx="27" ry="18"/>
<text text-anchor="middle" x="312.408" y="-407.3" font-family="Times,serif" font-size="14.00">31</text>
</g>
<!-- 31&#45;&gt;41 -->
<g id="edge14" class="edge"><title>31&#45;&gt;41</title>
<path fill="none" stroke="black" d="M329.628,-396.834C341.969,-386.682 358.78,-372.853 372.583,-361.498"/>
<polygon fill="black" stroke="black" points="374.807,-364.2 380.306,-355.144 370.36,-358.795 374.807,-364.2"/>
<text text-anchor="middle" x="347.605" y="-382.966" font-family="Times,serif" font-size="14.00">2</text>
</g>
<!-- 50 -->
<g id="node27" class="node"><title>50</title>
<ellipse fill="none" stroke="black" cx="215.161" cy="-491" rx="27" ry="18"/>
<text text-anchor="middle" x="215.161" y="-487.3" font-family="Times,serif" font-size="14.00">50</text>
</g>
<!-- 50&#45;&gt;31 -->
<g id="edge27" class="edge"><title>50&#45;&gt;31</title>
<path fill="none" stroke="black" d="M232.546,-476.698C247.758,-464.184 270.044,-445.851 287.21,-431.729"/>
<polygon fill="black" stroke="black" points="289.674,-434.235 295.173,-425.179 285.227,-428.829 289.674,-434.235"/>
<text text-anchor="middle" x="256.378" y="-458.013" font-family="Times,serif" font-size="14.00">1</text>
</g>
<!-- 32 -->
<g id="node28" class="node"><title>32</title>
<ellipse fill="none" stroke="black" cx="93.6009" cy="-541" rx="27" ry="18"/>
<text text-anchor="middle" x="93.6009" y="-537.3" font-family="Times,serif" font-size="14.00">32</text>
</g>
<!-- 32&#45;&gt;50 -->
<g id="edge15" class="edge"><title>32&#45;&gt;50</title>
<path fill="none" stroke="black" d="M116.751,-531.478C135.424,-523.797 161.909,-512.903 182.7,-504.352"/>
<polygon fill="black" stroke="black" points="184.179,-507.528 192.096,-500.487 181.517,-501.054 184.179,-507.528"/>
<text text-anchor="middle" x="146.226" y="-521.715" font-family="Times,serif" font-size="14.00">2</text>
</g>
<!-- 29 -->
<g id="node29" class="node"><title>29</title>
<ellipse fill="none" stroke="black" cx="215.161" cy="-591" rx="27" ry="18"/>
<text text-anchor="middle" x="215.161" y="-587.3" font-family="Times,serif" font-size="14.00">29</text>
</g>
<!-- 29&#45;&gt;50 -->
<g id="edge13" class="edge"><title>29&#45;&gt;50</title>
<path fill="none" stroke="black" d="M215.161,-572.658C215.161,-557.716 215.161,-536.366 215.161,-519.245"/>
<polygon fill="black" stroke="black" points="218.661,-519.225 215.161,-509.225 211.661,-519.225 218.661,-519.225"/>
<text text-anchor="middle" x="211.661" y="-549.752" font-family="Times,serif" font-size="14.00">1</text>
</g>
</g>
</svg>
